<?xml version="1.0" standalone="no"?>
<!DOCTYPE svg PUBLIC "-//W3C//DTD SVG 20010904//EN"
 "http://www.w3.org/TR/2001/REC-SVG-20010904/DTD/svg10.dtd">
<svg version="1.0" xmlns="http://www.w3.org/2000/svg"
 width="167.000000pt" height="81.000000pt" viewBox="0 0 167.000000 81.000000"
 preserveAspectRatio="xMidYMid meet">

<g transform="translate(0.000000,81.000000) scale(0.100000,-0.100000)"
fill="#000000" stroke="none">
<path d="M40 605 c0 -18 -5 -25 -20 -25 -16 0 -20 -7 -20 -30 0 -23 4 -30 20
-30 17 0 20 -7 20 -49 0 -53 14 -101 33 -113 7 -4 32 -8 56 -8 35 0 42 3 37
16 -3 9 -6 22 -6 29 0 8 -10 15 -22 17 -20 3 -23 10 -26 56 -3 50 -2 52 22 52
22 0 26 5 26 30 0 25 -4 30 -25 30 -20 0 -25 5 -25 25 0 22 -4 25 -35 25 -31
0 -35 -3 -35 -25z"/>
<path d="M220 550 c0 -28 3 -30 35 -30 32 0 35 2 35 30 0 28 -3 30 -35 30 -32
0 -35 -2 -35 -30z"/>
<path d="M374 568 c-32 -15 -49 -55 -48 -111 0 -43 5 -54 32 -79 25 -21 42
-28 75 -28 70 0 87 8 87 42 0 32 3 32 -66 12 -12 -3 -29 2 -45 15 l-24 20 73
1 72 0 0 35 c0 69 -36 106 -103 104 -18 0 -42 -5 -53 -11z m82 -55 c17 -17 17
-18 -4 -21 -12 -2 -32 -2 -44 0 -21 3 -21 4 -4 21 10 9 21 17 26 17 5 0 16 -8
26 -17z"/>
<path d="M588 573 c-13 -3 -18 -15 -18 -39 0 -40 -2 -39 38 -18 31 15 72 12
72 -6 0 -4 -21 -11 -46 -15 -25 -3 -54 -15 -65 -26 -25 -25 -24 -74 1 -99 23
-23 88 -28 108 -8 9 9 12 9 12 0 0 -7 13 -12 30 -12 l30 0 0 90 c0 83 -2 93
-25 115 -19 20 -34 25 -72 24 -26 -1 -56 -3 -65 -6z m90 -145 c-19 -29 -46
-35 -54 -13 -8 20 11 35 45 35 22 0 23 -1 9 -22z"/>
<path d="M791 408 c-1 -52 1 -58 19 -58 24 0 24 12 0 70 l-19 45 0 -57z"/>
<path d="M220 380 c0 -28 3 -30 35 -30 32 0 35 2 35 30 0 28 -3 30 -35 30 -32
0 -35 -2 -35 -30z"/>
<path d="M46 274 c-43 -42 2 -110 58 -88 27 11 19 35 -9 28 -18 -4 -27 -1 -31
11 -10 24 11 41 30 25 13 -10 17 -9 22 5 13 32 -42 47 -70 19z"/>
<path d="M164 265 c-19 -29 -11 -60 18 -76 26 -14 64 2 73 31 9 30 -19 70 -50
70 -15 0 -31 -10 -41 -25z m64 -28 c4 -20 -25 -34 -40 -19 -15 15 -1 44 19 40
10 -2 19 -11 21 -21z"/>
<path d="M280 275 c0 -8 5 -15 11 -15 6 0 8 -7 5 -16 -19 -51 -19 -64 4 -64
13 0 34 12 47 26 l24 26 -7 -26 c-5 -21 -3 -26 13 -26 16 0 19 8 19 55 0 59
-14 71 -40 34 l-14 -21 -11 21 c-13 24 -51 29 -51 6z"/>
<path d="M444 235 c0 -51 2 -55 23 -55 16 0 23 6 23 20 0 11 7 20 15 20 10 0
15 10 15 29 0 30 -14 41 -54 41 -20 0 -22 -5 -22 -55z m56 21 c0 -3 -4 -8 -10
-11 -5 -3 -10 -1 -10 4 0 6 5 11 10 11 6 0 10 -2 10 -4z"/>
<path d="M556 248 c8 -50 20 -68 44 -68 24 0 36 18 44 68 l6 42 -50 0 -50 0 6
-42z m64 3 c0 -17 -12 -41 -21 -41 -5 0 -9 11 -9 25 0 16 6 25 15 25 8 0 15
-4 15 -9z"/>
<path d="M680 269 c0 -15 4 -19 16 -15 14 5 16 1 10 -34 -6 -38 -5 -40 19 -40
24 0 25 2 19 35 -5 28 -3 35 10 35 9 0 16 8 16 20 0 17 -7 20 -45 20 -39 0
-45 -3 -45 -21z"/>
<path d="M804 235 l0 -55 37 0 36 0 0 55 0 55 -36 0 -37 0 0 -55z"/>
<path d="M924 235 l0 -54 43 1 c29 0 43 5 43 14 0 8 -4 14 -10 14 -5 0 -7 13
-3 31 7 35 -6 49 -47 49 -24 0 -26 -3 -26 -55z"/>
<path d="M1053 278 c-5 -7 -10 -30 -10 -51 -1 -31 3 -38 22 -43 13 -3 29 -3
34 1 17 10 13 46 -6 61 -17 13 -17 14 1 8 14 -5 17 -3 14 12 -4 23 -41 30 -55
12z"/>
</g>
</svg>
